# xmcd
#
# Track frame offsets:
#	150
#	3480
#	15079
#	23236
#	28496
#	42593
#	59684
#	64219
#	75728
#	88047
#	102877
#	109023
#	132140
#	141632
#	155587
#	162808
#	178283
#	189316
#
# Disc length: 2664 seconds
#
# Revision: 1
# Processed by: cddbd v1.5.2PL0 Copyright (c) Steve Scherf et al.
# Submitted via: EasyCDDAExtractor 16.0.6.1
#
DISCID=f60a6612
DTITLE=Συλλογικός δίσκος - Βασ. Τσιτσάνης 2 Σκόρπια φύλλα
DYEAR=2009
DGENRE=Ποικίλη
TTITLE0=Τσιτσάνης Βασίλης - Μαρτυρία Βασ. Τσιτσάνη
TTITLE1=Τσιτσάνης Βασίλης-Γεράνη Ελένη - Αχάριστη
TTITLE2=Τσιτσάνης Βασίλης-Γεράνη Ελένη - Αρχόντισσα
TTITLE3=Τσιτσάνης Βασίλης-Γεράνη Ελένη - Σερσέ λα φαμ
TTITLE4=Τσιτσάνης Βασίλης - Λαθρέμπορας
TTITLE5=Πολυμέρης Φώτης - Στέλλα μωρ' Στέλλα [παραδ., διασκ. Β. Τσιτσάνη]
TTITLE6=Τσιτσάνης Βασίλης - Αυτό το βράδυ χάνομαι
TTITLE7=Τσιτσάνης Βασίλης - Μην μού την σπας
TTITLE8=Σπανούδη Αθηνά - Μαρτυρία Αθηνάς Σπανούδη
TTITLE9=Μοσχονάς Οδυσσέας-Νίνου Μ.-Τσιτσάνης-Βούλγαρης-Γιαννόπουλος - Καΐκι μο
TTITLE9=υ Άη Νικόλα
TTITLE10=Τσιτσάνης Βασίλης-νεαρός θαυμαστής - Καβουράκια
TTITLE11=Νίνου Μ.-Τσιτσάνης Β.-Γιαννόπουλος Θ. - Της φτώχιας τα κουρέλια
TTITLE12=Τσιτσάνης Βασίλης - Μωρό μου
TTITLE13=Τσιτσάνης Βασίλης - Σαν πεθάνω στο καράβι [παραδ., διασκ. Β. Τσιτσάνη
TTITLE13=]
TTITLE14=Τσιτσάνης Βασίλης - Το παλληκάρι στο σφυρί [στ. Κώστα Βίρβου]
TTITLE15=Βαμβακάρης Μάρκος-Λαμπίρη Ελ.-Τσιτσάνης Β. - Απ' την μάννα μου διωγμέ
TTITLE15=νος [1948]
TTITLE16=Τσιτσάνης Βασίλης - Το καράβι που σαλπάρει
TTITLE17=Τσιτσάνης Βασίλης - Μπλόκος
EXTD=
EXTT0=
EXTT1=
EXTT2=
EXTT3=
EXTT4=
EXTT5=
EXTT6=
EXTT7=
EXTT8=
EXTT9=
EXTT10=
EXTT11=
EXTT12=
EXTT13=
EXTT14=
EXTT15=
EXTT16=
EXTT17=
PLAYORDER=
